<svg stroke="#fff" fill="#fff" id="scales" data-name="scales" xmlns="http://www.w3.org/2000/svg" viewBox="0 0 19.09 19.8"><defs><style>.cls-1{fill:none;stroke:#fff;stroke-miterlimit:10;stroke-width:1.5px;}</style></defs><title>Весы</title><path class="cls-1" d="M7.1,3.64a1,1,0,0,0-1.79,0C3.73,7.67,1.08,16,6.21,16S8.68,7.67,7.1,3.64Z" transform="translate(-2.45 -1.95)"/><path class="cls-1" d="M18.69,3.64a1,1,0,0,0-1.79,0c-1.58,4-4.23,12.36.9,12.36S20.27,7.67,18.69,3.64Z" transform="translate(-2.45 -1.95)"/><rect x="4.72" y="0.75" width="9.66" height="1.5"/><rect x="3.55" y="18.3" width="12" height="1.5" rx="0.75" ry="0.75"/><rect x="0.86" y="10.41" width="5.79" height="1.5" rx="0.5" ry="0.5"/><rect x="12.44" y="10.41" width="5.79" height="1.5" rx="0.5" ry="0.5"/><circle cx="9.55" cy="1.5" r="1.5"/></svg>