<svg id="Слой_1" data-name="Слой 1" xmlns="http://www.w3.org/2000/svg" viewBox="0 0 20.22 20"><defs><style>.cls-1{fill:none;stroke:#000;stroke-miterlimit:10;stroke-width:2px;}</style></defs><title>Сравнение</title><path class="cls-1" d="M6.93,4.2a1,1,0,0,0-1.86,0C3.44,8.37.69,17,6,17S8.56,8.37,6.93,4.2Z" transform="translate(-1.89 -2)"/><path class="cls-1" d="M18.93,4.2a1,1,0,0,0-1.86,0C15.44,8.37,12.69,17,18,17S20.56,8.37,18.93,4.2Z" transform="translate(-1.89 -2)"/><rect x="4.11" y="1" width="12" height="2" rx="1" ry="1"/><rect x="4.11" y="18" width="12" height="2" rx="1" ry="1"/><rect x="1.11" y="11" width="6" height="2" rx="1" ry="1"/><rect x="13.11" y="11" width="6" height="2" rx="1" ry="1"/><circle cx="10.11" cy="2" r="2"/></svg>